<?xml version="1.0" encoding="utf-8"?>
<!-- Generator: Adobe Illustrator 20.1.0, SVG Export Plug-In . SVG Version: 6.00 Build 0)  -->
<svg version="1.1" id="Layer_1" xmlns="http://www.w3.org/2000/svg" xmlns:xlink="http://www.w3.org/1999/xlink" x="0px" y="0px"
	 viewBox="0 0 32 32" style="enable-background:new 0 0 32 32;" xml:space="preserve">
<style type="text/css">
	.st0{fill:#FFFFFF;}
	.st1{fill:#008AFF;}
</style>
<circle class="st0" cx="16" cy="16" r="16"/>
<path class="st1" d="M16,0C7.2,0,0,7.2,0,16s7.2,16,16,16s16-7.2,16-16S24.8,0,16,0z M16,2.7c7.3,0,13.3,5.9,13.3,13.2l-0.5,0.2
	c-0.4,0.2-0.9,0.4-1.3,0.6c-1.6,0.5-3.3,0.7-4.9,0.4c-1.3-0.2-2.6-0.9-2.6-2.7c0-0.7,0.3-1.5,0.8-2c0.4-0.3,0.9-0.4,1.3-0.4l1.3,0.2
	L23,11c-0.7-1.7-2.3-2.9-4.1-3c-3.5,0.1-6.6,2-8.2,5.1c-0.7,1.3-2.1,4.1-3.6,5l-0.7,0.4c-1,0.6-2,1-3.2,1.2
	c-2-7.1,2.1-14.5,9.2-16.5C13.5,2.8,14.8,2.7,16,2.7z"/>
</svg>
