<svg id="Layer_1" data-name="Layer 1" xmlns="http://www.w3.org/2000/svg" viewBox="0 0 24 24"><defs><style>.cls-1{fill:#fff;}.cls-2{fill:#008aff;}</style></defs><title>gnar-location</title><circle class="cls-1" cx="12" cy="12" r="12"/><path class="cls-2" d="M12,0A12,12,0,1,0,24,12,12,12,0,0,0,12,0Zm0,2a10,10,0,0,1,10,9.93l-.39.18a8.28,8.28,0,0,1-1,.43,7.77,7.77,0,0,1-3.67.3c-.94-.17-1.94-.65-1.94-2a2,2,0,0,1,.58-1.48,1.27,1.27,0,0,1,1-.28l1,.14-.36-1A3.45,3.45,0,0,0,14.13,6,7,7,0,0,0,8,9.85c-.5,1-1.55,3.11-2.73,3.73l-.51.27a5.65,5.65,0,0,1-2.38.89A10,10,0,0,1,12,2Z"/></svg>