<?xml version="1.0" encoding="utf-8"?>
<!-- Generator: Adobe Illustrator 20.1.0, SVG Export Plug-In . SVG Version: 6.00 Build 0)  -->
<svg version="1.1" id="Layer_1" xmlns="http://www.w3.org/2000/svg" xmlns:xlink="http://www.w3.org/1999/xlink" x="0px" y="0px"
	 viewBox="0 0 76 70" style="enable-background:new 0 0 76 70;" xml:space="preserve">
<style type="text/css">
	.st0{fill:#FFFFFF;fill-opacity:0.5;}
	.st1{fill:#EC008C;}
</style>
<g>
	<path class="st0" d="M48.3,20.9c2.9,1.5,3.4,3.5,2.5,7.6c-1.2,5.1-8.6,14.1-11.7,14.1c-0.7,0-2.5,0.1-3.4-3.8
		c0.4-0.2,0.8-0.5,1.2-0.8C41.5,34.5,47.4,26.9,48.3,20.9z"/>
	<path class="st0" d="M38.7,21.7c1.4-2.6,2.1-5.1,2.2-7.3c0.7,0,1.6,0.2,2.4,0.7c1.2,0.8,1.9,2,2.1,3.6c0.6,4.5-5.2,13-10.3,16.8
		c-2.4,1.7-3.9,2-4.6,1.7c-1.6-0.7-1.6-3.3-1.5-4.4C32.6,30.4,36.5,26,38.7,21.7z"/>
	<path class="st0" d="M54.5,36.4c-0.1,0.1-0.2,0.2-0.3,0.3c-2.6,2.8-4.7,5.9-6.8,8.8c-3.6,5-7,9.8-11.6,12
		c-4.9,2.4-9.2,1.7-13.3-2.1c1.5-0.7,2.9-1.8,4.2-3.1c0.6-0.6,0.6-1.5,0-2.1s-1.5-0.6-2.1,0c-3,3-7.9,5.7-13.9,1.3
		c-6.2-4.6-6.8-12.6-7.1-16.1l-0.1-0.6c-0.2-2.9-0.2-8,0.2-11.5c0.4-3.9-0.2-10.2-0.6-12.9C2.6,6,3.3,4.5,3.7,4
		c0.2-0.2,0.5-0.5,1.2-0.5l0,0c4.9,0,6.6,6.3,7.2,11.6c0.2,1.9,0.9,3.7,1.9,5.4c0,0,0,0.1,0.1,0.1c0.5,0.8,1.1,1.6,1.8,2.3
		c0.6,0.6,1.5,0.6,2.1,0.1c0.6-0.6,0.6-1.5,0.1-2.1c-0.4-0.4-0.7-0.8-1-1.2c2.4-3.6,8.1-11.1,13.6-11.9c2-0.3,3.7,0.2,5.4,1.7
		c3.3,2.9,1.4,8,0,10.8c-3.7,7-10.5,12.3-12.8,11.8c-0.6-0.1-1.1-0.7-1.4-1.4c-0.3-0.8-0.4-2.1,0.3-3.1c0.9-1.3,2-2.9,3.1-4.4
		c1.8-2.5,3.4-4.6,3.9-5.8c0.4-0.7,0-1.6-0.7-2c-0.7-0.3-1.6,0-2,0.7c-0.4,0.9-2.1,3.1-3.6,5.3c-1.1,1.5-2.3,3.1-3.2,4.4
		c-1.1,1.7-1.4,3.9-0.6,5.8c0.7,1.7,1.9,2.9,3.4,3.3c0.3,0.1,0.6,0.1,1,0.1c0.8,0,1.6-0.2,2.4-0.5c0.2,2.2,1.1,4.5,3.3,5.4
		c0.6,0.3,1.2,0.4,1.8,0.4c0.6,0,1.2-0.1,1.9-0.3c1.2,4.5,3.8,5.5,6,5.5c0.1,0,0.1,0,0.2,0c5-0.1,13.2-10.8,14.5-16.4
		C53.9,28,54,27,54.1,26c4.5-1.6,10.6-6.4,13.7-10.1c0.8-0.9,1.9-1.9,3.2-1.8c0.9,0.1,1.6,0.9,1.9,1.6
		C73.6,17.4,72.4,25.5,54.5,36.4z"/>
</g>
<path class="st1" d="M75.6,14.7c-0.8-1.8-2.4-3.1-4.2-3.4C70,11,67.8,11.4,65.5,14c-2.9,3.5-8.1,7.4-11.7,8.9
	c-0.6-2.2-2.3-4-5.7-5.4c-0.6-2.6-2-4.1-3.2-4.9c-1.4-0.9-2.9-1.2-4.3-1.2c-0.4-1.6-1.3-3-2.6-4.1c-2.3-2-4.9-2.8-7.8-2.4
	c-6.3,1-12.1,8.1-14.7,11.9c-0.2-0.6-0.4-1.3-0.4-1.9C13.8,3.1,8.9,0.6,5,0.6H4.9C3.5,0.6,2.3,1.1,1.5,2c-1.4,1.6-1.8,4.4-1.2,8.7
	c0.4,3.1,0.9,8.9,0.6,12.3c-0.4,3.6-0.4,9-0.2,12v0.6c0.2,2.6,0.6,7.5,3,12.1C3.8,50.5,1.8,55,1,56.6c-0.4,0.7-0.1,1.6,0.6,2
	c0.2,0.1,0.5,0.2,0.7,0.2c0.5,0,1.1-0.3,1.3-0.8c0.2-0.5,1.8-3.5,2.6-6.7C7,52.2,7.9,53.1,9,53.9c2.6,1.9,5.3,2.9,8,2.9
	c0.8,0,1.7-0.1,2.5-0.3c0.1,0.1,0.1,0.2,0.2,0.3c2.2,2.4,4.6,3.9,7.1,4.6c-3.5,3-5.4,5.6-5.5,5.7c-0.5,0.7-0.3,1.6,0.3,2.1
	c0.3,0.2,0.6,0.3,0.9,0.3c0.5,0,0.9-0.2,1.2-0.6c0,0,2.5-3.4,7.2-7c2-0.1,4.1-0.7,6.2-1.7c5.3-2.6,8.9-7.7,12.7-13
	c2-2.8,4.1-5.7,6.5-8.4C74.9,27.5,77.1,18.1,75.6,14.7z M48.3,20.9c2.9,1.5,3.4,3.5,2.5,7.6c-1.2,5.1-8.6,14.1-11.7,14.1
	c-0.7,0-2.5,0.1-3.4-3.8c0.4-0.2,0.8-0.5,1.2-0.8C41.5,34.5,47.4,26.9,48.3,20.9z M38.7,21.7c1.4-2.6,2.1-5.1,2.2-7.3
	c0.7,0,1.6,0.2,2.4,0.7c1.2,0.8,1.9,2,2.1,3.6c0.6,4.5-5.2,13-10.3,16.8c-2.4,1.7-3.9,2-4.6,1.7c-1.6-0.7-1.6-3.3-1.5-4.4
	C32.6,30.4,36.5,26,38.7,21.7z M54.5,36.4c-0.1,0.1-0.2,0.2-0.3,0.3c-2.6,2.8-4.7,5.9-6.8,8.8c-3.6,5-7,9.8-11.6,12
	c-4.9,2.4-9.2,1.7-13.3-2.1c1.5-0.7,2.9-1.8,4.2-3.1c0.6-0.6,0.6-1.5,0-2.1s-1.5-0.6-2.1,0c-3,3-7.9,5.7-13.9,1.3
	c-6.2-4.6-6.8-12.6-7.1-16.1l-0.1-0.6c-0.2-2.9-0.2-8,0.2-11.5c0.4-3.9-0.2-10.2-0.6-12.9C2.6,6,3.3,4.5,3.7,4
	c0.2-0.2,0.5-0.5,1.2-0.5l0,0c4.9,0,6.6,6.3,7.2,11.6c0.2,1.9,0.9,3.7,1.9,5.4c0,0,0,0.1,0.1,0.1c0.5,0.8,1.1,1.6,1.8,2.3
	c0.6,0.6,1.5,0.6,2.1,0.1c0.6-0.6,0.6-1.5,0.1-2.1c-0.4-0.4-0.7-0.8-1-1.2c2.4-3.6,8.1-11.1,13.6-11.9c2-0.3,3.7,0.2,5.4,1.7
	c3.3,2.9,1.4,8,0,10.8c-3.7,7-10.5,12.3-12.8,11.8c-0.6-0.1-1.1-0.7-1.4-1.4c-0.3-0.8-0.4-2.1,0.3-3.1c0.9-1.3,2-2.9,3.1-4.4
	c1.8-2.5,3.4-4.6,3.9-5.8c0.4-0.7,0-1.6-0.7-2c-0.7-0.3-1.6,0-2,0.7c-0.4,0.9-2.1,3.1-3.6,5.3c-1.1,1.5-2.3,3.1-3.2,4.4
	c-1.1,1.7-1.4,3.9-0.6,5.8c0.7,1.7,1.9,2.9,3.4,3.3c0.3,0.1,0.6,0.1,1,0.1c0.8,0,1.6-0.2,2.4-0.5c0.2,2.2,1.1,4.5,3.3,5.4
	c0.6,0.3,1.2,0.4,1.8,0.4c0.6,0,1.2-0.1,1.9-0.3c1.2,4.5,3.8,5.5,6,5.5c0.1,0,0.1,0,0.2,0c5-0.1,13.2-10.8,14.5-16.4
	C53.9,28,54,27,54.1,26c4.5-1.6,10.6-6.4,13.7-10.1c0.8-0.9,1.9-1.9,3.2-1.8c0.9,0.1,1.6,0.9,1.9,1.6C73.6,17.4,72.4,25.5,54.5,36.4
	z"/>
</svg>
